<mxfile host="app.diagrams.net" modified="2022-03-21T04:51:13.802Z" agent="5.0 (Macintosh; Intel Mac OS X 10_15_7) AppleWebKit/537.36 (KHTML, like Gecko) Chrome/98.0.4758.102 Safari/537.36" etag="U8-Gmi7shzIC7Ee3lzUv" version="17.1.3" type="github">
  <diagram id="4U--HPvD2QzRJVEtall8" name="Page-1">
    <mxGraphModel dx="946" dy="614" grid="1" gridSize="10" guides="1" tooltips="1" connect="1" arrows="1" fold="1" page="1" pageScale="1" pageWidth="827" pageHeight="1169" math="0" shadow="0">
      <root>
        <mxCell id="0" />
        <mxCell id="1" parent="0" />
        <mxCell id="HVtSJz-cIyDCCVQ7azYk-12" value="" style="verticalLabelPosition=bottom;verticalAlign=top;html=1;shape=card;whiteSpace=wrap;size=20;arcSize=12;fillColor=#dae8fc;strokeColor=#6c8ebf;" parent="1" vertex="1">
          <mxGeometry x="110" y="370" width="570" height="240" as="geometry" />
        </mxCell>
        <mxCell id="HVtSJz-cIyDCCVQ7azYk-13" value="&lt;h1&gt;Servers&lt;/h1&gt;&lt;p&gt;&lt;font style=&quot;font-size: 14px&quot;&gt;AST server side for image processing and training of deep convolutional networks&lt;/font&gt;&lt;/p&gt;" style="text;html=1;strokeColor=none;fillColor=none;spacing=5;spacingTop=-20;whiteSpace=wrap;overflow=hidden;rounded=0;" parent="1" vertex="1">
          <mxGeometry x="120" y="380" width="190" height="120" as="geometry" />
        </mxCell>
        <mxCell id="HVtSJz-cIyDCCVQ7azYk-8" value="" style="verticalLabelPosition=bottom;verticalAlign=top;html=1;shape=card;whiteSpace=wrap;size=20;arcSize=12;fillColor=#d5e8d4;strokeColor=#82b366;" parent="1" vertex="1">
          <mxGeometry x="110" y="120" width="570" height="240" as="geometry" />
        </mxCell>
        <mxCell id="HVtSJz-cIyDCCVQ7azYk-5" value="&lt;div&gt;&lt;span style=&quot;font-size: 14px&quot;&gt;&lt;br&gt;&lt;/span&gt;&lt;/div&gt;&lt;div&gt;&lt;span style=&quot;font-size: 14px&quot;&gt;Material SEM images&lt;/span&gt;&lt;br&gt;&lt;/div&gt;&lt;div&gt;&lt;span style=&quot;font-size: 14px&quot;&gt;Database Interface&lt;/span&gt;&lt;/div&gt;" style="strokeWidth=2;html=1;shape=mxgraph.flowchart.database;whiteSpace=wrap;fillColor=#ffe6cc;strokeColor=#d79b00;" parent="1" vertex="1">
          <mxGeometry x="340" y="145" width="130" height="90" as="geometry" />
        </mxCell>
        <mxCell id="HVtSJz-cIyDCCVQ7azYk-11" value="&lt;h1&gt;Client&lt;/h1&gt;&lt;p&gt;&lt;font style=&quot;font-size: 14px&quot;&gt;AST client for fast data processing and control of the overall AST process&lt;/font&gt;&lt;/p&gt;" style="text;html=1;strokeColor=none;fillColor=none;spacing=5;spacingTop=-20;whiteSpace=wrap;overflow=hidden;rounded=0;" parent="1" vertex="1">
          <mxGeometry x="120" y="130" width="190" height="120" as="geometry" />
        </mxCell>
        <mxCell id="HVtSJz-cIyDCCVQ7azYk-15" value="&lt;div&gt;&lt;span style=&quot;font-size: 14px&quot;&gt;SEM images&lt;/span&gt;&lt;/div&gt;&lt;div&gt;&lt;span style=&quot;font-size: 14px&quot;&gt;Artificial markers&lt;/span&gt;&lt;/div&gt;" style="shape=process;whiteSpace=wrap;html=1;backgroundOutline=1;strokeWidth=2;fillColor=#fad9d5;strokeColor=#ae4132;" parent="1" vertex="1">
          <mxGeometry x="140" y="260" width="120" height="70" as="geometry" />
        </mxCell>
        <mxCell id="HVtSJz-cIyDCCVQ7azYk-20" value="&lt;div&gt;&lt;span style=&quot;font-size: 14px&quot;&gt;AST&lt;/span&gt;&lt;/div&gt;&lt;div&gt;&lt;span style=&quot;font-size: 14px&quot;&gt;Computational Visualization&lt;/span&gt;&lt;/div&gt;" style="shape=process;whiteSpace=wrap;html=1;backgroundOutline=1;strokeWidth=2;fillColor=#fad9d5;strokeColor=#ae4132;" parent="1" vertex="1">
          <mxGeometry x="400" y="260" width="120" height="70" as="geometry" />
        </mxCell>
        <mxCell id="HVtSJz-cIyDCCVQ7azYk-21" value="&lt;div&gt;&lt;span style=&quot;font-size: 14px&quot;&gt;SEM segmentation results&lt;/span&gt;&lt;/div&gt;&lt;div&gt;&lt;span style=&quot;font-size: 14px&quot;&gt;Analysis&lt;/span&gt;&lt;/div&gt;" style="shape=process;whiteSpace=wrap;html=1;backgroundOutline=1;strokeWidth=2;fillColor=#fad9d5;strokeColor=#ae4132;" parent="1" vertex="1">
          <mxGeometry x="530" y="260" width="120" height="70" as="geometry" />
        </mxCell>
        <mxCell id="HVtSJz-cIyDCCVQ7azYk-25" value="&lt;div&gt;&lt;span style=&quot;font-size: 14px&quot;&gt;SEM images&lt;/span&gt;&lt;/div&gt;&lt;div&gt;&lt;span style=&quot;font-size: 14px&quot;&gt;Enhanced Dataset&lt;/span&gt;&lt;/div&gt;&lt;div&gt;&lt;span style=&quot;font-size: 14px&quot;&gt;Generate&lt;/span&gt;&lt;/div&gt;" style="shape=process;whiteSpace=wrap;html=1;backgroundOutline=1;strokeWidth=2;fillColor=#fad9d5;strokeColor=#ae4132;" parent="1" vertex="1">
          <mxGeometry x="270" y="260" width="120" height="70" as="geometry" />
        </mxCell>
        <mxCell id="HVtSJz-cIyDCCVQ7azYk-26" value="&lt;div&gt;&lt;span style=&quot;font-size: 14px&quot;&gt;&lt;br&gt;&lt;/span&gt;&lt;/div&gt;&lt;div&gt;&lt;span style=&quot;font-size: 14px&quot;&gt;Material SEM images&lt;/span&gt;&lt;/div&gt;&lt;div&gt;&lt;span style=&quot;font-size: 14px&quot;&gt;Shooter Interface&lt;/span&gt;&lt;/div&gt;" style="strokeWidth=2;html=1;shape=mxgraph.flowchart.database;whiteSpace=wrap;fillColor=#ffe6cc;strokeColor=#d79b00;" parent="1" vertex="1">
          <mxGeometry x="500" y="145" width="130" height="90" as="geometry" />
        </mxCell>
        <mxCell id="HVtSJz-cIyDCCVQ7azYk-33" value="&lt;div&gt;&lt;span style=&quot;font-size: 14px&quot;&gt;Deep Convolutional Networks&lt;/span&gt;&lt;/div&gt;&lt;div&gt;&lt;span style=&quot;font-size: 14px&quot;&gt;Training System&lt;/span&gt;&lt;/div&gt;" style="shape=process;whiteSpace=wrap;html=1;backgroundOutline=1;strokeWidth=2;fillColor=#fad9d5;strokeColor=#ae4132;" parent="1" vertex="1">
          <mxGeometry x="270" y="500" width="120" height="85" as="geometry" />
        </mxCell>
        <mxCell id="HVtSJz-cIyDCCVQ7azYk-34" value="&lt;div&gt;&lt;span style=&quot;font-size: 14px&quot;&gt;Deep Convolutional Networks&lt;/span&gt;&lt;/div&gt;&lt;div&gt;&lt;span style=&quot;font-size: 14px&quot;&gt;Verification System&lt;/span&gt;&lt;/div&gt;" style="shape=process;whiteSpace=wrap;html=1;backgroundOutline=1;strokeWidth=2;fillColor=#fad9d5;strokeColor=#ae4132;" parent="1" vertex="1">
          <mxGeometry x="400" y="500" width="120" height="85" as="geometry" />
        </mxCell>
        <mxCell id="HVtSJz-cIyDCCVQ7azYk-35" value="&lt;div&gt;&lt;span style=&quot;font-size: 14px&quot;&gt;Pre-processing system&lt;/span&gt;&lt;/div&gt;" style="shape=process;whiteSpace=wrap;html=1;backgroundOutline=1;strokeWidth=2;fillColor=#fad9d5;strokeColor=#ae4132;" parent="1" vertex="1">
          <mxGeometry x="140" y="500" width="120" height="85" as="geometry" />
        </mxCell>
        <mxCell id="HVtSJz-cIyDCCVQ7azYk-36" value="&lt;div&gt;&lt;span style=&quot;font-size: 14px&quot;&gt;Visual Interpretation&lt;/span&gt;&lt;/div&gt;&lt;div&gt;&lt;span style=&quot;font-size: 14px&quot;&gt;Synthesis system&lt;/span&gt;&lt;/div&gt;" style="shape=process;whiteSpace=wrap;html=1;backgroundOutline=1;strokeWidth=2;fillColor=#fad9d5;strokeColor=#ae4132;" parent="1" vertex="1">
          <mxGeometry x="530" y="500" width="120" height="85" as="geometry" />
        </mxCell>
        <mxCell id="HVtSJz-cIyDCCVQ7azYk-37" value="&lt;div&gt;&lt;span style=&quot;font-size: 14px&quot;&gt;&lt;br&gt;&lt;/span&gt;&lt;/div&gt;&lt;div&gt;&lt;span style=&quot;font-size: 14px&quot;&gt;SEM data set&lt;/span&gt;&lt;/div&gt;&lt;div&gt;&lt;span style=&quot;font-size: 14px&quot;&gt;Input Interface&lt;/span&gt;&lt;/div&gt;" style="strokeWidth=2;html=1;shape=mxgraph.flowchart.database;whiteSpace=wrap;fillColor=#ffe6cc;strokeColor=#d79b00;" parent="1" vertex="1">
          <mxGeometry x="340" y="395" width="130" height="90" as="geometry" />
        </mxCell>
        <mxCell id="HVtSJz-cIyDCCVQ7azYk-38" value="&lt;div&gt;&lt;span style=&quot;font-size: 14px&quot;&gt;&lt;br&gt;&lt;/span&gt;&lt;/div&gt;&lt;div&gt;&lt;span style=&quot;font-size: 14px&quot;&gt;SEM segmentation results&lt;/span&gt;&lt;/div&gt;&lt;div&gt;&lt;span style=&quot;font-size: 14px&quot;&gt;Output Interface&lt;/span&gt;&lt;/div&gt;" style="strokeWidth=2;html=1;shape=mxgraph.flowchart.database;whiteSpace=wrap;fillColor=#ffe6cc;strokeColor=#d79b00;" parent="1" vertex="1">
          <mxGeometry x="500" y="395" width="130" height="90" as="geometry" />
        </mxCell>
      </root>
    </mxGraphModel>
  </diagram>
</mxfile>
